<?xml version="1.0" encoding="UTF-8"?>
<svg xmlns="http://www.w3.org/2000/svg" width="18" height="18" viewBox="0 0 18 18" fill="none">
  <g clip-path="url(#clip0_4850_159)">
    <path d="M-0.000155412 2.01591C-0.00809909 1.74579 0.041668 1.47709 0.145824 1.22774C0.249979 0.978383 0.406127 0.754117 0.603845 0.569907C1.0334 0.179418 1.59988 -0.0254648 2.17984 -9.29402e-05C2.74469 -0.0236076 3.29576 0.178185 3.71184 0.560907C3.91204 0.756112 4.06893 0.991259 4.1723 1.25107C4.27567 1.51087 4.32322 1.78952 4.31184 2.06891C4.31795 2.33042 4.26882 2.59028 4.16767 2.83152C4.06653 3.07276 3.91563 3.28995 3.72484 3.46891C3.51139 3.66534 3.2612 3.81763 2.98867 3.917C2.71613 4.01637 2.42664 4.06086 2.13684 4.04791H2.12384C1.84203 4.05988 1.56069 4.01496 1.29662 3.91583C1.03255 3.81669 0.791156 3.66538 0.586845 3.47091C0.393968 3.28196 0.242255 3.05517 0.141237 2.80477C0.0402191 2.55438 -0.00791997 2.2858 -0.000155412 2.01591ZM0.223845 17.3559V5.64491H4.05684V17.3569L0.223845 17.3559ZM6.18084 17.3559H10.0138V10.8169C9.98981 10.4448 10.0566 10.0724 10.2085 9.73178C10.3604 9.3912 10.5929 9.09267 10.8858 8.86191C11.234 8.58027 11.6723 8.43395 12.1198 8.44991C13.4092 8.44991 14.0538 9.33224 14.0538 11.0969V17.3559H17.8868V10.6419C17.9889 9.22535 17.5585 7.82172 16.6798 6.70591C16.2773 6.2616 15.782 5.91119 15.229 5.67946C14.676 5.44773 14.0789 5.34035 13.4798 5.36491C12.78 5.34801 12.0886 5.51977 11.478 5.86217C10.8675 6.20457 10.3604 6.70498 10.0098 7.31091V7.34591H9.99685L10.0138 7.31091V5.64491H6.17984C6.20318 6.01891 6.21484 7.18191 6.21484 9.13391C6.21484 11.0859 6.20318 13.8269 6.17984 17.3569L6.18084 17.3559Z" fill="#96968E"></path>
  </g>
  <defs>
    <clipPath id="clip0_4850_159">
      <rect width="17.887" height="17.357" fill="white"></rect>
    </clipPath>
  </defs>
</svg>
