<?xml version="1.0" encoding="UTF-8"?>
<svg xmlns="http://www.w3.org/2000/svg" width="18" height="18" viewBox="0 0 18 18" fill="none">
  <g clip-path="url(#clip0_4850_157)">
    <path d="M8.6817 4.22797C7.80158 4.22797 6.94121 4.48896 6.20942 4.97793C5.47762 5.4669 4.90725 6.1619 4.57044 6.97503C4.23363 7.78816 4.1455 8.68291 4.31721 9.54612C4.48891 10.4093 4.91273 11.2023 5.53508 11.8246C6.15742 12.4469 6.95034 12.8708 7.81355 13.0425C8.67677 13.2142 9.57151 13.126 10.3846 12.7892C11.1978 12.4524 11.8928 11.8821 12.3817 11.1503C12.8707 10.4185 13.1317 9.5581 13.1317 8.67797C13.1326 8.09333 13.0182 7.51425 12.7948 6.97394C12.5715 6.43362 12.2438 5.94269 11.8304 5.52929C11.417 5.11589 10.926 4.78814 10.3857 4.56483C9.84542 4.34152 9.26634 4.22705 8.6817 4.22797ZM8.6817 11.571C8.10952 11.571 7.55019 11.4013 7.07444 11.0834C6.59869 10.7655 6.22788 10.3137 6.00892 9.78507C5.78996 9.25645 5.73266 8.67476 5.84429 8.11357C5.95592 7.55239 6.23145 7.0369 6.63604 6.63231C7.04064 6.22772 7.55612 5.95219 8.11731 5.84056C8.67849 5.72893 9.26018 5.78622 9.78881 6.00519C10.3174 6.22415 10.7693 6.59495 11.0871 7.07071C11.405 7.54646 11.5747 8.10579 11.5747 8.67797C11.5729 9.44467 11.2675 10.1794 10.7253 10.7216C10.1832 11.2637 9.44841 11.5691 8.6817 11.571ZM14.3517 4.04597C14.3517 4.25127 14.2908 4.45195 14.1768 4.62265C14.0627 4.79335 13.9006 4.92639 13.7109 5.00496C13.5213 5.08352 13.3126 5.10408 13.1112 5.06403C12.9098 5.02397 12.7249 4.92511 12.5797 4.77995C12.4346 4.63478 12.3357 4.44983 12.2956 4.24847C12.2556 4.04712 12.2762 3.83841 12.3547 3.64875C12.4333 3.45908 12.5663 3.29696 12.737 3.18291C12.9077 3.06885 13.1084 3.00797 13.3137 3.00797C13.4501 3.00771 13.5852 3.03438 13.7112 3.08645C13.8373 3.13852 13.9518 3.21497 14.0483 3.31141C14.1447 3.40785 14.2212 3.52238 14.2732 3.64843C14.3253 3.77449 14.352 3.90958 14.3517 4.04597ZM17.2987 5.09897C17.3279 3.74981 16.825 2.44336 15.8987 1.46197C14.9154 0.538748 13.6102 0.036349 12.2617 0.0619707C10.8287 -0.0190293 6.5337 -0.0190293 5.1007 0.0619707C3.75169 0.0353393 2.44585 0.537862 1.4627 1.46197C0.537918 2.44429 0.0352634 3.75011 0.0627031 5.09897C-0.0182969 6.53197 -0.0182969 10.827 0.0627031 12.26C0.0335396 13.6091 0.536436 14.9156 1.4627 15.897C2.4464 16.8196 3.75129 17.3218 5.0997 17.297C6.5327 17.378 10.8277 17.378 12.2607 17.297C13.6099 17.3261 14.9163 16.8232 15.8977 15.897C16.8209 14.9137 17.3233 13.6085 17.2977 12.26C17.3787 10.827 17.3787 6.53597 17.2977 5.10297L17.2987 5.09897ZM15.4477 13.794C15.3004 14.1674 15.078 14.5065 14.7941 14.7904C14.5103 15.0742 14.1711 15.2967 13.7977 15.444C12.6547 15.897 9.9437 15.793 8.6817 15.793C7.4197 15.793 4.7037 15.893 3.5657 15.444C3.19229 15.2967 2.85314 15.0742 2.5693 14.7904C2.28546 14.5065 2.06299 14.1674 1.9157 13.794C1.4627 12.651 1.5667 9.93997 1.5667 8.67797C1.5667 7.41597 1.4667 4.69997 1.9157 3.56197C2.06299 3.18856 2.28546 2.8494 2.5693 2.56556C2.85314 2.28172 3.19229 2.05926 3.5657 1.91197C4.7047 1.46197 7.4187 1.56197 8.6817 1.56197C9.9447 1.56197 12.6597 1.46197 13.7977 1.91097C14.1711 2.05826 14.5103 2.28072 14.7941 2.56456C15.078 2.8484 15.3004 3.18756 15.4477 3.56097C15.9007 4.70397 15.7967 7.41497 15.7967 8.67697C15.7967 9.93897 15.9047 12.655 15.4477 13.794Z" fill="#96968E"></path>
  </g>
  <defs>
    <clipPath id="clip0_4850_157">
      <rect width="17.36" height="17.356" fill="white"></rect>
    </clipPath>
  </defs>
</svg>
