<?xml version="1.0" encoding="UTF-8"?>
<svg xmlns="http://www.w3.org/2000/svg" width="17" height="18" viewBox="0 0 17 18" fill="none">
  <g clip-path="url(#clip0_4850_155)">
    <path d="M8.67939 7.43812V10.4141H13.6014C13.375 11.529 12.7508 12.5235 11.8451 13.2121C10.9395 13.9006 9.81424 14.2362 8.67939 14.1561C7.24886 14.1226 5.88819 13.5308 4.88828 12.5073C3.88838 11.4837 3.32858 10.1095 3.32858 8.67862C3.32858 7.2477 3.88838 5.87355 4.88828 4.84997C5.88819 3.82639 7.24886 3.2346 8.67939 3.20112C9.96399 3.17427 11.2074 3.65463 12.1404 4.53812L14.4934 2.26912C12.9228 0.787656 10.8383 -0.0258782 8.67939 0.000115999C7.53187 -0.0122021 6.39331 0.203176 5.32958 0.633787C4.26585 1.0644 3.29808 1.70169 2.48227 2.50879C1.66647 3.31588 1.01882 4.27676 0.576818 5.3358C0.134814 6.39485 -0.0927734 7.53103 -0.0927734 8.67862C-0.0927734 9.8262 0.134814 10.9624 0.576818 12.0214C1.01882 13.0805 1.66647 14.0413 2.48227 14.8484C3.29808 15.6555 4.26585 16.2928 5.32958 16.7234C6.39331 17.1541 7.53187 17.3694 8.67939 17.3571C13.6884 17.3571 17.0104 13.8361 17.0104 8.87712C17.0087 8.39461 16.9628 7.91327 16.8734 7.43912L8.67939 7.43812Z" fill="#96968E"></path>
  </g>
  <defs>
    <clipPath id="clip0_4850_155">
      <rect width="17.01" height="17.357" fill="white"></rect>
    </clipPath>
  </defs>
</svg>
